<svg xmlns="http://www.w3.org/2000/svg" viewBox="0 0 2000.06 403.15"><defs>
    <style>.cls-1{fill:#026664;}.cls-2{font-size:315.04px;fill:#002427;font-family:TwCenMT-Regular, Tw Cen MT;}.cls-3{letter-spacing:-0.03em;}.cls-4{letter-spacing:0em;}
    </style>
    </defs><title>logo korumaak</title>
    <g id="Calque_2" data-name="Calque 2">
        <g id="Calque_1-2" data-name="Calque 1">
            <polygon class="cls-1" points="175.81 0 292.76 66.47 292.76 199.99 246.57 225.72 246.57 91.22 132.15 25.14 175.81 0"/>
            <polygon class="cls-1" points="235.2 303 352.15 236.53 352.15 103.01 305.96 77.28 305.96 211.78 191.54 277.85 235.2 303"/>
            <polygon class="cls-1" points="121.17 304.24 237.2 372.29 352.83 305.53 352.02 252.66 235.54 319.91 121.11 253.86 121.17 304.24"/>
            <polygon class="cls-1" points="117.37 99.99 0.42 166.46 0.42 299.98 46.62 325.71 46.62 191.21 161.03 125.14 117.37 99.99"/>
            <polygon class="cls-1" points="175.69 403.15 58.74 336.69 58.74 203.17 104.93 177.44 104.93 311.93 219.35 378.01 175.69 403.15"/>
            <polygon class="cls-1" points="0.06 101.19 116.09 33.14 231.72 99.9 230.91 152.77 114.43 85.53 0 151.57 0.06 101.19"/>
            <text class="cls-2" transform="translate(387 310)">korumaak</text>
        </g>
    </g>
</svg>